<svg version="1.1" xmlns="http://www.w3.org/2000/svg" xmlns:xlink="http://www.w3.org/1999/xlink" width="30.51629" height="29.51576" viewBox="0,0,30.51629,29.51576"><g transform="translate(-285.24212,-120.24212)"><g stroke="none" stroke-miterlimit="10"><path d="M285.24212,135c0,-8.15055 6.60733,-14.75788 14.75788,-14.75788c8.15055,0 14.75788,6.60733 14.75788,14.75788c0,8.15055 -6.60733,14.75788 -14.75788,14.75788c-8.15055,0 -14.75788,-6.60733 -14.75788,-14.75788z" fill="#f4ff00" stroke-width="NaN"/><path d="M304.25227,129.99733c0,-3.17733 2.57574,-5.75307 5.75307,-5.75307c3.17733,0 5.75307,2.57574 5.75307,5.75307c0,3.17733 -2.57574,5.75307 -5.75307,5.75307c-3.17733,0 -5.75307,-2.57574 -5.75307,-5.75307z" fill="#ffffff" stroke-width="0"/><path d="M309.25227,129.63915c0,-1.25642 1.01853,-2.27495 2.27495,-2.27495c1.25642,0 2.27495,1.01853 2.27495,2.27495c0,1.25642 -1.01853,2.27495 -2.27495,2.27495c-1.25642,0 -2.27495,-1.01853 -2.27495,-2.27495z" fill="#000000" stroke-width="0"/><path d="M294.17771,137.0422v-0.59213h11.12113v0.59213z" fill="#ff8400" stroke-width="0"/></g></g></svg>